<?xml version="1.0" encoding="UTF-8"?>
<!DOCTYPE svg PUBLIC "-//W3C//DTD SVG 1.1//EN" "http://www.w3.org/Graphics/SVG/1.1/DTD/svg11.dtd">
<svg xmlns="http://www.w3.org/2000/svg" version="1.1" width="96px" height="96px" style="shape-rendering:geometricPrecision; text-rendering:geometricPrecision; image-rendering:optimizeQuality; fill-rule:evenodd; clip-rule:evenodd" xmlns:xlink="http://www.w3.org/1999/xlink">
<g><path style="opacity:0.977" fill="#2169ff" d="M 83.5,17.5 C 82.1667,17.5 80.8333,17.5 79.5,17.5C 78.653,16.0337 77.3197,15.2004 75.5,15C 56.8333,14.3333 38.1667,14.3333 19.5,15C 17.0898,15.0572 15.7565,16.2239 15.5,18.5C 14.2921,17.7659 12.9587,17.4326 11.5,17.5C 11.393,15.0968 12.393,13.2635 14.5,12C 36.5,11.3333 58.5,11.3333 80.5,12C 82.607,13.2635 83.607,15.0968 83.5,17.5 Z"/></g>
<g><path style="opacity:1" fill="#3c5eff" d="M 11.5,17.5 C 12.9587,17.4326 14.2921,17.7659 15.5,18.5C 14.5863,21.728 14.2529,25.0613 14.5,28.5C 13.5,28.5 12.5,28.5 11.5,28.5C 11.5,24.8333 11.5,21.1667 11.5,17.5 Z"/></g>
<g><path style="opacity:1" fill="#3c5eff" d="M 79.5,17.5 C 80.8333,17.5 82.1667,17.5 83.5,17.5C 83.5,21.1667 83.5,24.8333 83.5,28.5C 82.5,28.5 81.5,28.5 80.5,28.5C 80.6773,24.7657 80.3439,21.0991 79.5,17.5 Z"/></g>
<g><path style="opacity:0.974" fill="#73c5ff" d="M 68.5,28.5 C 54.4213,28.1849 40.4213,28.5182 26.5,29.5C 26.5,28.5 26.5,27.5 26.5,26.5C 40.8733,25.8509 54.8733,26.5176 68.5,28.5 Z"/></g>
<g><path style="opacity:0.999" fill="#78c4ff" d="M 68.5,28.5 C 68.5,29.1667 68.5,29.8333 68.5,30.5C 54.5,30.5 40.5,30.5 26.5,30.5C 26.5,30.1667 26.5,29.8333 26.5,29.5C 40.4213,28.5182 54.4213,28.1849 68.5,28.5 Z"/></g>
<g><path style="opacity:1" fill="#7fc2fe" d="M 26.5,30.5 C 40.5,30.5 54.5,30.5 68.5,30.5C 68.5,31.5 68.5,32.5 68.5,33.5C 54.5,33.5 40.5,33.5 26.5,33.5C 26.5,32.5 26.5,31.5 26.5,30.5 Z"/></g>
<g><path style="opacity:1" fill="#4c57ff" d="M 11.5,28.5 C 12.5,28.5 13.5,28.5 14.5,28.5C 14.5,30.5 14.5,32.5 14.5,34.5C 13.5,34.5 12.5,34.5 11.5,34.5C 11.5,32.5 11.5,30.5 11.5,28.5 Z"/></g>
<g><path style="opacity:1" fill="#4c57ff" d="M 80.5,28.5 C 81.5,28.5 82.5,28.5 83.5,28.5C 83.5,30.5 83.5,32.5 83.5,34.5C 82.5,34.5 81.5,34.5 80.5,34.5C 80.5,32.5 80.5,30.5 80.5,28.5 Z"/></g>
<g><path style="opacity:1" fill="#86c1ff" d="M 26.5,33.5 C 40.5,33.5 54.5,33.5 68.5,33.5C 68.5,34.1667 68.5,34.8333 68.5,35.5C 54.5,35.5 40.5,35.5 26.5,35.5C 26.5,34.8333 26.5,34.1667 26.5,33.5 Z"/></g>
<g><path style="opacity:1" fill="#8cbffe" d="M 26.5,35.5 C 40.5,35.5 54.5,35.5 68.5,35.5C 68.5,36.5 68.5,37.5 68.5,38.5C 54.5,38.5 40.5,38.5 26.5,38.5C 26.5,37.5 26.5,36.5 26.5,35.5 Z"/></g>
<g><path style="opacity:1" fill="#92befe" d="M 26.5,38.5 C 40.5,38.5 54.5,38.5 68.5,38.5C 68.5,39.1667 68.5,39.8333 68.5,40.5C 54.5,40.5 40.5,40.5 26.5,40.5C 26.5,39.8333 26.5,39.1667 26.5,38.5 Z"/></g>
<g><path style="opacity:1" fill="#5c50fe" d="M 11.5,34.5 C 12.5,34.5 13.5,34.5 14.5,34.5C 14.5,36.8333 14.5,39.1667 14.5,41.5C 13.5,41.5 12.5,41.5 11.5,41.5C 11.5,39.1667 11.5,36.8333 11.5,34.5 Z"/></g>
<g><path style="opacity:1" fill="#5c50fe" d="M 80.5,34.5 C 81.5,34.5 82.5,34.5 83.5,34.5C 83.5,36.8333 83.5,39.1667 83.5,41.5C 82.5,41.5 81.5,41.5 80.5,41.5C 80.5,39.1667 80.5,36.8333 80.5,34.5 Z"/></g>
<g><path style="opacity:1" fill="#99bcfe" d="M 26.5,40.5 C 40.5,40.5 54.5,40.5 68.5,40.5C 68.5,41.5 68.5,42.5 68.5,43.5C 54.5,43.5 40.5,43.5 26.5,43.5C 26.5,42.5 26.5,41.5 26.5,40.5 Z"/></g>
<g><path style="opacity:1" fill="#6d49fe" d="M 11.5,41.5 C 12.5,41.5 13.5,41.5 14.5,41.5C 14.5,44.5 14.5,47.5 14.5,50.5C 13.5,50.5 12.5,50.5 11.5,50.5C 11.5,47.5 11.5,44.5 11.5,41.5 Z"/></g>
<g><path style="opacity:1" fill="#a0bbfe" d="M 26.5,43.5 C 40.5,43.5 54.5,43.5 68.5,43.5C 68.5,44.1667 68.5,44.8333 68.5,45.5C 54.5,45.5 40.5,45.5 26.5,45.5C 26.5,44.8333 26.5,44.1667 26.5,43.5 Z"/></g>
<g><path style="opacity:1" fill="#6d49fe" d="M 80.5,41.5 C 81.5,41.5 82.5,41.5 83.5,41.5C 83.5,44.5 83.5,47.5 83.5,50.5C 82.5,50.5 81.5,50.5 80.5,50.5C 80.5,47.5 80.5,44.5 80.5,41.5 Z"/></g>
<g><path style="opacity:1" fill="#a5baff" d="M 26.5,45.5 C 40.5,45.5 54.5,45.5 68.5,45.5C 68.5,46.1667 68.5,46.8333 68.5,47.5C 54.5,47.5 40.5,47.5 26.5,47.5C 26.5,46.8333 26.5,46.1667 26.5,45.5 Z"/></g>
<g><path style="opacity:1" fill="#abb8fe" d="M 26.5,47.5 C 40.5,47.5 54.5,47.5 68.5,47.5C 68.5,48.5 68.5,49.5 68.5,50.5C 54.5,50.5 40.5,50.5 26.5,50.5C 26.5,49.5 26.5,48.5 26.5,47.5 Z"/></g>
<g><path style="opacity:1" fill="#b2b7ff" d="M 26.5,50.5 C 40.5,50.5 54.5,50.5 68.5,50.5C 68.5,51.1667 68.5,51.8333 68.5,52.5C 54.5,52.5 40.5,52.5 26.5,52.5C 26.5,51.8333 26.5,51.1667 26.5,50.5 Z"/></g>
<g><path style="opacity:1" fill="#8040fe" d="M 11.5,50.5 C 12.5,50.5 13.5,50.5 14.5,50.5C 14.5,53.1667 14.5,55.8333 14.5,58.5C 13.5,58.5 12.5,58.5 11.5,58.5C 11.5,55.8333 11.5,53.1667 11.5,50.5 Z"/></g>
<g><path style="opacity:1" fill="#b8b5fe" d="M 26.5,52.5 C 40.5,52.5 54.5,52.5 68.5,52.5C 68.5,53.5 68.5,54.5 68.5,55.5C 54.5,55.5 40.5,55.5 26.5,55.5C 26.5,54.5 26.5,53.5 26.5,52.5 Z"/></g>
<g><path style="opacity:1" fill="#8040fe" d="M 80.5,50.5 C 81.5,50.5 82.5,50.5 83.5,50.5C 83.5,53.1667 83.5,55.8333 83.5,58.5C 82.5,58.5 81.5,58.5 80.5,58.5C 80.5,55.8333 80.5,53.1667 80.5,50.5 Z"/></g>
<g><path style="opacity:1" fill="#bfb4ff" d="M 26.5,55.5 C 40.5,55.5 54.5,55.5 68.5,55.5C 68.5,56.1667 68.5,56.8333 68.5,57.5C 54.5,57.5 40.5,57.5 26.5,57.5C 26.5,56.8333 26.5,56.1667 26.5,55.5 Z"/></g>
<g><path style="opacity:1" fill="#c4b3ff" d="M 26.5,57.5 C 40.5,57.5 54.5,57.5 68.5,57.5C 68.5,58.1667 68.5,58.8333 68.5,59.5C 54.5,59.5 40.5,59.5 26.5,59.5C 26.5,58.8333 26.5,58.1667 26.5,57.5 Z"/></g>
<g><path style="opacity:1" fill="#cab1fe" d="M 26.5,59.5 C 40.5,59.5 54.5,59.5 68.5,59.5C 68.5,60.5 68.5,61.5 68.5,62.5C 54.5,62.5 40.5,62.5 26.5,62.5C 26.5,61.5 26.5,60.5 26.5,59.5 Z"/></g>
<g><path style="opacity:1" fill="#d2affe" d="M 26.5,62.5 C 40.5,62.5 54.5,62.5 68.5,62.5C 68.5,63.5 68.5,64.5 68.5,65.5C 54.5,65.5 40.5,65.5 26.5,65.5C 26.5,64.5 26.5,63.5 26.5,62.5 Z"/></g>
<g><path style="opacity:0.986" fill="#d9adff" d="M 26.5,65.5 C 40.5,65.5 54.5,65.5 68.5,65.5C 68.5,66.5 68.5,67.5 68.5,68.5C 54.5,68.5 40.5,68.5 26.5,68.5C 26.5,67.5 26.5,66.5 26.5,65.5 Z"/></g>
<g><path style="opacity:1" fill="#9b35fe" d="M 11.5,58.5 C 12.5,58.5 13.5,58.5 14.5,58.5C 14.5,62.8333 14.5,67.1667 14.5,71.5C 13.5,71.5 12.5,71.5 11.5,71.5C 11.5,67.1667 11.5,62.8333 11.5,58.5 Z"/></g>
<g><path style="opacity:1" fill="#9b35fe" d="M 80.5,58.5 C 81.5,58.5 82.5,58.5 83.5,58.5C 83.5,62.8333 83.5,67.1667 83.5,71.5C 82.5,71.5 81.5,71.5 80.5,71.5C 80.5,67.1667 80.5,62.8333 80.5,58.5 Z"/></g>
<g><path style="opacity:0.934" fill="#b927ff" d="M 11.5,71.5 C 12.5,71.5 13.5,71.5 14.5,71.5C 14.0598,75.7676 15.7264,78.6009 19.5,80C 38.1667,80.6667 56.8333,80.6667 75.5,80C 79.2736,78.6009 80.9402,75.7676 80.5,71.5C 81.5,71.5 82.5,71.5 83.5,71.5C 83.6646,74.5184 83.498,77.5184 83,80.5C 82.2917,81.3805 81.4584,82.0472 80.5,82.5C 58.5,81.1667 36.5,81.1667 14.5,82.5C 13.5416,82.0472 12.7083,81.3805 12,80.5C 11.502,77.5184 11.3354,74.5184 11.5,71.5 Z"/></g>
<g><path style="opacity:0.966" fill="#c323ff" d="M 80.5,82.5 C 58.5,83.8333 36.5,83.8333 14.5,82.5C 36.5,81.1667 58.5,81.1667 80.5,82.5 Z"/></g>
</svg>
